<svg width="25" height="24" viewBox="0 0 25 24" fill="none" xmlns="http://www.w3.org/2000/svg">
<path d="M5.47363 2.10156H18.6736C19.7736 2.10156 20.6736 3.00156 20.6736 4.10156V6.30156C20.6736 7.10156 20.1736 8.10156 19.6736 8.60156L15.3736 12.4016C14.7736 12.9016 14.3736 13.9016 14.3736 14.7016V19.0016C14.3736 19.6016 13.9736 20.4016 13.4736 20.7016L12.0736 21.6016C10.7736 22.4016 8.97363 21.5016 8.97363 19.9016V14.6016C8.97363 13.9016 8.57363 13.0016 8.17363 12.5016L4.37363 8.50156C3.87363 8.00156 3.47363 7.10156 3.47363 6.50156V4.20156C3.47363 3.00156 4.37363 2.10156 5.47363 2.10156Z" stroke="#292D32" stroke-width="1.5" stroke-miterlimit="10" stroke-linecap="round" stroke-linejoin="round"/>
<path d="M11.0032 2.10156L6.07324 10.0016" stroke="#292D32" stroke-width="1.5" stroke-miterlimit="10" stroke-linecap="round" stroke-linejoin="round"/>
</svg>
